<?xml version="1.0" standalone="no"?>
<!DOCTYPE svg PUBLIC "-//W3C//DTD SVG 20010904//EN"
 "http://www.w3.org/TR/2001/REC-SVG-20010904/DTD/svg10.dtd">
<svg version="1.0" xmlns="http://www.w3.org/2000/svg"
 width="1024.000000pt" height="1024.000000pt" viewBox="0 0 1024.000000 1024.000000"
 preserveAspectRatio="xMidYMid meet">

<g transform="translate(0.000000,1024.000000) scale(0.100000,-0.100000)"
fill="#ffffff" stroke="none">
<path d="M6910 8054 c-30 -8 -176 -48 -325 -89 -148 -40 -463 -126 -700 -190
-236 -64 -635 -172 -885 -240 -250 -68 -738 -201 -1085 -295 -624 -169 -946
-257 -1120 -305 -49 -13 -182 -49 -294 -80 l-203 -55 -147 0 c-159 0 -223 -12
-290 -55 -49 -30 -99 -89 -125 -144 l-21 -46 0 -1670 0 -1670 24 -45 c38 -72
75 -113 137 -150 l58 -35 167 -5 c92 -3 169 -7 172 -10 2 -3 27 -131 56 -285
42 -227 57 -289 80 -330 50 -89 164 -155 268 -155 25 0 231 36 457 80 226 45
479 94 561 110 475 92 992 194 1903 376 l1023 204 662 2 c364 2 739 5 832 8
159 5 173 7 220 32 67 35 128 100 162 173 l28 60 0 1645 0 1645 -23 57 c-29
73 -96 142 -170 176 -52 24 -70 27 -209 30 -84 2 -153 7 -153 10 0 3 -18 113
-41 246 -44 262 -59 304 -126 367 -78 75 -152 96 -276 78 -45 -6 -91 -12 -102
-13 -17 -1 -24 21 -62 194 -45 202 -64 250 -124 310 -53 53 -105 73 -194 76
-49 2 -101 -2 -135 -12z m170 -214 c11 -6 24 -19 30 -29 10 -20 84 -361 78
-365 -3 -3 -137 -24 -828 -131 -261 -41 -621 -97 -800 -125 -415 -65 -663
-102 -1300 -195 -283 -42 -584 -87 -669 -100 -85 -14 -156 -23 -158 -21 -3 2
11 7 29 11 18 4 148 40 288 80 230 66 1762 483 2465 671 519 140 760 206 764
210 9 8 83 4 101 -6z m559 -565 c39 -20 47 -45 76 -250 14 -99 28 -192 31
-207 l6 -28 -1689 1 c-1105 1 -1667 5 -1628 11 33 5 224 34 425 64 201 30 507
77 680 105 173 27 664 104 1090 169 426 66 809 126 850 134 102 18 126 18 159
1z m606 -709 c19 -8 44 -30 55 -48 20 -33 20 -46 20 -1634 l0 -1601 -23 -34
c-12 -19 -36 -41 -52 -49 -27 -13 -394 -15 -3130 -15 -2972 0 -3102 1 -3128
18 -16 10 -37 32 -47 50 -20 31 -20 64 -20 1630 0 1765 -5 1636 63 1677 32 20
75 20 3130 20 2673 0 3102 -2 3132 -14z m-2775 -3608 c-114 -20 -544 -101
-785 -148 -137 -27 -470 -92 -740 -145 -269 -53 -661 -130 -870 -171 -242 -48
-391 -73 -411 -69 -53 10 -81 47 -94 128 -7 40 -27 150 -45 245 l-32 172 1516
-1 c995 -1 1497 -5 1461 -11z"/>
<path d="M2893 6305 c-43 -18 -62 -51 -74 -124 -38 -235 -216 -409 -457 -445
-61 -9 -100 -20 -114 -32 -49 -44 -48 -34 -48 -831 0 -723 1 -749 20 -780 25
-41 44 -51 127 -63 117 -17 172 -39 260 -104 110 -80 184 -197 204 -316 12
-81 35 -127 70 -146 24 -12 347 -14 2242 -14 l2214 0 27 21 c36 29 53 64 61
132 10 80 62 181 129 254 98 106 187 152 330 172 86 12 127 34 145 78 8 21 11
233 9 790 l-3 763 -31 30 c-26 27 -43 33 -121 46 -159 25 -232 62 -327 165
-66 71 -110 160 -127 254 -14 87 -31 120 -72 145 -31 20 -67 20 -2232 20
-1849 -1 -2205 -3 -2232 -15z m1737 -207 c0 -5 -7 -8 -15 -8 -28 0 -171 -83
-260 -150 -317 -242 -501 -588 -522 -985 -17 -326 72 -622 265 -877 130 -173
335 -334 497 -390 48 -17 21 -17 -761 -18 l-811 0 -12 43 c-19 65 -87 185
-146 258 -94 116 -258 222 -391 252 l-59 14 -3 646 c-2 638 -2 647 18 647 43
0 174 51 246 95 169 106 298 279 349 470 3 12 1605 14 1605 3z m2612 -73 c14
-44 42 -108 62 -142 98 -167 296 -314 465 -345 l61 -12 0 -646 0 -646 -62 -13
c-35 -7 -103 -34 -153 -59 -73 -38 -108 -64 -185 -142 -103 -103 -152 -177
-187 -279 l-22 -66 -808 -2 -808 -3 57 24 c32 13 92 45 134 72 320 199 553
552 605 916 47 333 -29 672 -214 948 -109 164 -324 347 -511 436 -42 20 -76
37 -76 38 0 0 364 1 808 1 l808 0 26 -80z m-1936 -56 c216 -38 397 -133 562
-293 338 -327 427 -853 218 -1281 -64 -131 -125 -213 -233 -316 -182 -174
-391 -271 -642 -300 -157 -18 -367 18 -528 91 -157 71 -333 217 -435 360 -61
85 -131 228 -156 315 -38 131 -46 190 -46 335 0 206 34 351 121 525 146 289
446 512 760 565 72 12 311 12 379 -1z"/>
<path d="M2923 5176 c-164 -53 -260 -220 -218 -378 27 -104 82 -169 183 -216
44 -20 74 -25 175 -29 264 -12 384 40 455 196 69 151 -7 341 -166 414 -42 19
-67 22 -217 24 -121 2 -182 -1 -212 -11z m341 -210 c70 -29 90 -114 38 -166
-24 -24 -39 -29 -107 -35 -100 -10 -218 0 -249 20 -70 46 -50 169 29 188 48
11 257 7 289 -7z"/>
<path d="M6931 5179 c-50 -15 -135 -72 -164 -111 -48 -63 -67 -117 -67 -199 0
-65 4 -85 31 -137 36 -73 92 -124 168 -154 50 -19 75 -22 226 -22 166 -1 171
0 232 28 69 31 128 88 165 158 19 35 23 59 23 128 0 74 -4 92 -29 143 -34 66
-74 105 -149 144 -50 27 -57 28 -227 30 -97 1 -190 -3 -209 -8z m366 -225 c56
-42 53 -134 -6 -172 -20 -14 -51 -17 -166 -17 -168 0 -197 10 -217 76 -10 37
-10 46 8 78 28 52 63 61 221 58 116 -2 135 -5 160 -23z"/>
<path d="M5060 5817 c-37 -18 -60 -72 -60 -143 l0 -61 -38 -7 c-70 -11 -177
-72 -233 -134 -78 -85 -93 -126 -93 -252 0 -118 16 -167 75 -234 69 -80 148
-118 377 -182 138 -39 192 -63 235 -103 40 -37 57 -73 57 -123 0 -128 -148
-217 -314 -189 -104 17 -152 43 -227 121 -66 69 -67 70 -119 70 -44 0 -56 -4
-81 -29 -24 -24 -29 -38 -29 -76 0 -25 8 -62 19 -83 44 -87 185 -181 317 -211
l51 -12 6 -65 c6 -76 25 -110 74 -131 49 -20 96 -10 127 28 22 26 26 40 26 99
l0 69 57 16 c168 49 280 152 325 298 42 141 2 297 -102 390 -75 68 -117 85
-441 181 -142 42 -193 90 -193 180 0 101 70 157 205 164 134 7 209 -28 273
-125 33 -50 72 -68 129 -60 79 11 111 88 70 175 -39 85 -191 198 -292 218
l-31 7 0 69 c0 77 -17 119 -57 137 -32 15 -82 14 -113 -2z"/>
</g>
</svg>
